Coordinates
nRows=9
nColumns=38

# SIMM Motion File Header:
name Coordinates
datacolumns 38
datarows 9
otherdata 1
range 0.69100000000000006000 0.69900000000000007000

Units are S.I. units (second, meters, Newtons, ...)
Angles are in degrees.

endheader
time	pelvis_tilt	pelvis_list	pelvis_rotation	pelvis_tx	pelvis_ty	pelvis_tz	hip_flexion_r	hip_adduction_r	hip_rotation_r	knee_angle_r	ankle_angle_r	subtalar_angle_r	mtp_angle_r	hip_flexion_l	hip_adduction_l	hip_rotation_l	knee_angle_l	ankle_angle_l	subtalar_angle_l	mtp_angle_l	lumbar_extension	lumbar_bending	lumbar_rotation	arm_flex_r	arm_add_r	arm_rot_r	elbow_flex_r	pro_sup_r	wrist_flex_r	wrist_dev_r	arm_flex_l	arm_add_l	arm_rot_l	elbow_flex_l	pro_sup_l	wrist_flex_l	wrist_dev_l
      0.69100000000000006000	      1.56359300278172800000	     -2.21069500649261790000	      0.44609319511004553000	      0.74601520813229039000	      0.96847016424782095000	     -0.30227332930564377000	     -3.22203964722638460000	      8.78991996652069220000	      2.33227248888208520000	    -33.19862339845390400000	     25.45453295963361000000	     -0.00000000000001466432	     -0.00000000000001081096	     32.93177041164092600000	      0.31025031422806232000	      1.91030388423765070000	    -93.55724305596928000000	     -8.00130526589776810000	      0.00000000000000278182	      0.00000000000000855214	    -15.50917343801673300000	      1.96405418674287710000	      5.35920919848246860000	    -12.86253203434020700000	    -27.96636154453760500000	     -7.52930299015398940000	     95.55498449527081600000	     66.32829977091816400000	     -0.00000000000000115216	      0.00000000000000574882	    -17.23635230835782700000	    -17.39739256947221700000	      1.81908271628671470000	     83.65128589316863400000	    100.26370848617408000000	      0.00000000000000520549	      0.00000000000000105948
      0.69200000000000006000	      1.51625242281189740000	     -2.06933031961964400000	      0.45463083369218504000	      0.74633064293493978000	      0.96884825116277951000	     -0.30228523894053638000	     -3.62174726683547470000	      8.61477742197678080000	      2.34733539907767510000	    -32.83987210803357500000	     25.15945258572777400000	     -0.00000000000001499297	     -0.00000000000001067909	     33.15505187663217200000	      0.48215236571329056000	      1.84852397233829380000	    -93.15930310385074600000	     -7.90075636077250910000	      0.00000000000000288830	      0.00000000000000843272	    -15.40327573888132500000	      1.80621511207687990000	      5.42844390732547580000	    -12.84373454883524000000	    -27.96792608015245200000	     -7.64142560593281670000	     95.67357846119783500000	     66.36410123169405000000	     -0.00000000000000116115	      0.00000000000000573319	    -17.55598018453134700000	    -17.45029982737920800000	      1.61512584492405750000	     83.81321745690262000000	    100.11935419929830000000	      0.00000000000000539803	      0.00000000000000109284
      0.69300000000000006000	      1.46834025853796370000	     -1.92654039963311870000	      0.46146654095487127000	      0.74665308905671823000	      0.96923184825027486000	     -0.30229674228240089000	     -4.02146198938967010000	      8.43705194456108920000	      2.36064545580529610000	    -32.47757901404586500000	     24.85103384689076100000	     -0.00000000000001532371	     -0.00000000000001049302	     33.37417466380106400000	      0.65418043696987327000	      1.78434428902296220000	    -92.75412479196418800000	     -7.79915006357552800000	      0.00000000000000299941	      0.00000000000000829654	    -15.29610094588015000000	      1.64641659348424270000	      5.49907248296791540000	    -12.82790656422225900000	    -27.96895909257554200000	     -7.75408610439594790000	     95.79349784455172300000	     66.40102023352027100000	     -0.00000000000000116906	      0.00000000000000571814	    -17.87662855482072300000	    -17.50506009462888800000	      1.41288117800726520000	     83.97949934317887300000	     99.96976804623423600000	      0.00000000000000558964	      0.00000000000000112737
      0.69400000000000006000	      1.41997185649098780000	     -1.78238050384092130000	      0.46655506274185293000	      0.74698233024981731000	      0.96962095845356511000	     -0.30230774189163057000	     -4.42116422490032870000	      8.25680480576610880000	      2.37224691354547760000	    -32.11194825510311500000	     24.52927770158131800000	     -0.00000000000001560819	     -0.00000000000001030990	     33.58903125645850500000	      0.82622543290160833000	      1.71779024490662890000	    -92.34174370914738000000	     -7.69654342212779330000	      0.00000000000000311287	      0.00000000000000812138	    -15.18781804240717800000	      1.48471265613819830000	      5.57116383340613910000	    -12.81496994752689900000	    -27.96950297946021300000	     -7.86718359530378920000	     95.91470762049391400000	     66.43897604881658500000	     -0.00000000000000117573	      0.00000000000000569811	    -18.19816046543121100000	    -17.56164498379914500000	      1.21243545366991600000	     84.14989005795428100000	     99.81528030301416300000	      0.00000000000000577612	      0.00000000000000115983
      0.69500000000000006000	      1.37125880579675410000	     -1.63690740487307050000	      0.46985695656681842000	      0.74731814218468362000	      0.97001557494636992000	     -0.30231814546804026000	     -4.82082643645624920000	      8.07410072032873140000	      2.38218139568316720000	    -31.74319149595838900000	     24.19420351963307100000	     -0.00000000000001586672	     -0.00000000000001019808	     33.79952014900469900000	      0.99818294376677330000	      1.64889401222516920000	    -91.92219343513794200000	     -7.59300090082641880000	      0.00000000000000322279	      0.00000000000000794420	    -15.07859238502383000000	      1.32116069008598020000	      5.64477889662761360000	    -12.80484533501450400000	    -27.96960101831377400000	     -7.98061676751232070000	     96.03717291268819200000	     66.47788634616448200000	     -0.00000000000000118139	      0.00000000000000568918	    -18.52044532523670400000	    -17.62002305728791300000	      1.01386715706171100000	     84.32415470767337200000	     99.65622585762363900000	      0.00000000000000596851	      0.00000000000000119216
      0.69600000000000006000	      1.32230768400037510000	     -1.49017959420847900000	      0.47133917203617143000	      0.74766029324806160000	      0.97041567910419746000	     -0.30232786689617291000	     -5.22041212900270680000	      7.88900812554014410000	      2.39048701344449110000	    -31.37152750658733800000	     23.84584942688688600000	     -0.00000000000001614031	     -0.00000000000001006484	     34.00554706286058600000	      1.16995344452189690000	      1.57769516332704350000	    -91.49550558582545500000	     -7.48859409600686820000	      0.00000000000000332944	      0.00000000000000776506	    -14.96858410016141000000	      1.15582177196828750000	      5.71997003381001170000	    -12.79745242408960400000	    -27.96929714267946200000	     -8.09428407986089300000	     96.16085871642430000000	     66.51766781226693600000	     -0.00000000000000118786	      0.00000000000000568696	    -18.84335922432798300000	    -17.68015961424448100000	      0.81724645456444667000	     84.50206484226909300000	     99.49294221423450300000	      0.00000000000000617195	      0.00000000000000122344
      0.69700000000000006000	      1.27321860495539060000	     -1.34225690176436200000	      0.47096985975471495000	      0.74800854477902601000	      0.97082123900880002000	     -0.30233681912026450000	     -5.61987373591952540000	      7.70159838812743040000	      2.39720302297691610000	    -30.99718401818244800000	     23.48427305269670700000	     -0.00000000000001646359	     -0.00000000000000988178	     34.20702531415366100000	      1.34143970337322860000	      1.50423620918427400000	    -91.06170921143746000000	     -7.38340035299864010000	      0.00000000000000341596	      0.00000000000000759055	    -14.85794644704838800000	      0.98875909667362538000	      5.79678585746834060000	    -12.79271020898833900000	    -27.96863594193975500000	     -8.20808396207492840000	     96.28572955553568100000	     66.55823671987668900000	     -0.00000000000000119366	      0.00000000000000568012	    -19.16678508219710200000	    -17.74201618113904600000	      0.62263517435017268000	     84.68339797587277900000	     99.32576763381632600000	      0.00000000000000639400	      0.00000000000000125310
      0.69800000000000006000	      1.22408405535921520000	     -1.19319992562209310000	      0.46871140024315500000	      0.74836265117406786000	      0.97123220867042048000	     -0.30234490448560120000	     -6.01915047543510350000	      7.51194445907600270000	      2.40237619545945250000	    -30.62040022462005200000	     23.10955248694293800000	     -0.00000000000001682872	     -0.00000000000000967092	     34.40387558211897100000	      1.51254324114770930000	      1.42855661241985170000	    -90.62082995673675600000	     -7.27750094029643700000	      0.00000000000000349299	      0.00000000000000744097	    -14.74682448463125600000	      0.82003586849120746000	      5.87527777772008890000	    -12.79053713671240200000	    -27.96766274233070600000	     -8.32191501753325370000	     96.41174912356555600000	     66.59950946204153900000	     -0.00000000000000119869	      0.00000000000000568044	    -19.49061266689724200000	    -17.80554991658520000000	      0.43008682793929054000	     84.86793701097248300000	     99.15503930684303700000	      0.00000000000000662983	      0.00000000000000128148
      0.69900000000000007000	      1.17499061810567110000	     -1.04307412795526730000	      0.46456272127002285000	      0.74872236510955759000	      0.97164852502408128000	     -0.30235207540724246000	     -6.41817741136856150000	      7.32012875993767680000	      2.40602005957484800000	    -30.24140943070584700000	     22.72178360483440700000	     -0.00000000000001722704	     -0.00000000000000942902	     34.59603114394636900000	      1.68318506418901360000	      1.35072996515297670000	    -90.17289441377457100000	     -7.17098853815205840000	      0.00000000000000357522	      0.00000000000000728085	    -14.63535559758280000000	      0.64972883535174597000	      5.95546015693367180000	    -12.79085150610113800000	    -27.96642177582878500000	     -8.43567611195321380000	     96.53888055149337800000	     66.64140346952939400000	     -0.00000000000000120370	      0.00000000000000568413	    -19.81473984337074500000	    -17.87071568699056100000	      0.23964627231004898000	     85.05547257080411300000	     98.98109026486426400000	      0.00000000000000689390	      0.00000000000000131212
